<svg width="262" height="45" viewBox="0 0 262 45" fill="none" xmlns="http://www.w3.org/2000/svg">
<path fill-rule="evenodd" clip-rule="evenodd" d="M85.9912 6.89941C88.8761 6.89946 91.5207 7.37988 93.9248 8.34082C96.3635 9.26759 98.4766 10.5894 100.263 12.3057C102.049 14.0219 103.423 16.0468 104.385 18.3809C105.381 20.6805 105.879 23.2034 105.879 25.9492C105.879 28.6609 105.381 31.1845 104.385 33.5186C103.423 35.8183 102.049 37.8432 100.263 39.5938C98.4766 41.31 96.3809 42.6483 93.9766 43.6094C91.5722 44.5361 88.9446 45 86.0938 45C83.2085 45 80.5461 44.5197 78.1074 43.5586C75.7032 42.5975 73.5909 41.2582 71.7705 39.542C69.9845 37.8258 68.5937 35.8007 67.5977 33.4668C66.6016 31.1328 66.1035 28.61 66.1035 25.8984C66.1035 23.1524 66.5841 20.6289 67.5459 18.3291C68.5419 16.0296 69.9329 14.0218 71.7188 12.3057C73.5049 10.5894 75.6005 9.26759 78.0049 8.34082C80.4436 7.37975 83.106 6.89941 85.9912 6.89941ZM85.9912 15.9609C84.0677 15.9609 82.4014 16.3735 80.9932 17.1973C79.585 17.9867 78.5027 19.1363 77.7471 20.6465C76.9914 22.1224 76.6133 23.8733 76.6133 25.8984C76.6133 27.4429 76.8203 28.8328 77.2324 30.0684C77.6789 31.3041 78.3143 32.3683 79.1387 33.2607C79.963 34.1188 80.9418 34.788 82.0752 35.2686C83.243 35.7148 84.5486 35.9385 85.9912 35.9385C87.9145 35.9384 89.5801 35.5259 90.9883 34.7021C92.3966 33.8784 93.4787 32.7115 94.2344 31.2012C94.9899 29.691 95.3681 27.9234 95.3682 25.8984C95.3682 24.3883 95.1447 23.0323 94.6982 21.8311C94.2861 20.5954 93.6681 19.5476 92.8438 18.6895C92.0195 17.7971 91.0232 17.1279 89.8555 16.6816C88.7221 16.2011 87.4337 15.961 85.9912 15.9609Z" fill="white"/>
<path d="M192.304 7.00195C195.052 7.00195 197.594 7.44837 199.93 8.34082C202.299 9.19891 204.257 10.4347 205.803 12.0479L199.311 18.4844C198.177 17.386 197.044 16.5793 195.91 16.0645C194.777 15.5153 193.541 15.2403 192.201 15.2402C191.137 15.2402 190.278 15.4117 189.625 15.7549C189.007 16.0981 188.697 16.6133 188.697 17.2998C188.697 18.0206 189.007 18.621 189.625 19.1016C190.243 19.5477 191.05 19.9603 192.046 20.3379C193.076 20.7155 194.193 21.1096 195.396 21.5215C196.632 21.9334 197.852 22.4311 199.054 23.0146C200.256 23.5638 201.355 24.2853 202.351 25.1777C203.381 26.0359 204.206 27.1166 204.824 28.4209C205.442 29.7252 205.751 31.3047 205.751 33.1582C205.751 36.8995 204.412 39.7999 201.732 41.8594C199.088 43.8844 195.344 44.8974 190.501 44.8975C187.375 44.8975 184.644 44.451 182.309 43.5586C180.007 42.6318 177.878 41.1725 175.92 39.1816L182.36 32.7461C183.7 34.016 185.108 34.9942 186.585 35.6807C188.062 36.3328 189.642 36.6592 191.325 36.6592C192.733 36.6592 193.798 36.4529 194.52 36.041C195.241 35.5948 195.602 34.9943 195.602 34.2393C195.602 33.4841 195.292 32.8663 194.674 32.3857C194.056 31.8709 193.232 31.4244 192.201 31.0469C191.205 30.635 190.088 30.2234 188.852 29.8115C187.649 29.3996 186.447 28.9018 185.245 28.3184C184.043 27.7348 182.927 27.0308 181.896 26.207C180.9 25.3489 180.093 24.3021 179.475 23.0664C178.856 21.7964 178.548 20.2518 178.548 18.4326C178.548 16.0642 179.115 14.0219 180.248 12.3057C181.381 10.5895 182.978 9.28502 185.039 8.39258C187.1 7.46583 189.522 7.00198 192.304 7.00195Z" fill="white"/>
<path d="M34.2148 18.4961L13.1152 44.2793H0L34.2148 0.560547V18.4961Z" fill="white"/>
<path d="M58.7354 44.2793H46.7607V31.3877L37.6367 44.2793H23.665L58.7354 0V44.2793Z" fill="white"/>
<path d="M121.048 18.9033L124.799 30.0713L124.805 30.0518L129.574 44.2725L129.572 44.2793H119.783L106.336 7.62012H106.344L121.048 18.9033Z" fill="white"/>
<path d="M174.369 16.167H156.955V21.4189H172.772V29.7598H156.955V35.7324H174.679V44.2793H146.65V7.62012H174.369V16.167Z" fill="white"/>
<path d="M220.352 44.2793H210.047V7.62012H220.352V44.2793Z" fill="white"/>
<path fill-rule="evenodd" clip-rule="evenodd" d="M262 44.2793H251.283L249.25 38.1006H236.314L234.229 44.2793H223.719L237.682 7.62012H248.192L262 44.2793ZM239.024 30.0684H246.605L242.861 18.6943L239.024 30.0684Z" fill="white"/>
<path d="M133.043 34.958L128.13 20.3066L132.458 7.62012H143.226L133.043 34.958Z" fill="white"/>
</svg>
