<svg version="1.2" xmlns="http://www.w3.org/2000/svg" viewBox="0 0 1488 1681" width="1488" height="1681">
	<title>U</title>
	<style>
		.s0 { fill: #ffffff } 
	</style>
	<g id="g849">
		<path id="path6" class="s0" d="m1487.5 1176.1v-784.1l-679-392v301l266 154c10.5 7 10.5 21.1 0 24.6l-315 182c-10.5 7-21 3.5-28 0l-315-182c-10.5-3.5-10.5-21.1 0-24.6l266-154v-301l-682.5 392v784.1-3.5 3.5l259-150.5v-308c0-10.5 14-17.5 21-14l315 182c10.5 7 14 14 14 24.5v364c0 10.5-14 17.5-21 14l-266-154-259 150.5 679 395.6 679-392.1-259-150.5-266 154c-10.5 7-21 0-21-14v-364c0-10.5 7-21 14-24.5l315-182c10.5-7 21 0 21 14v308z"/>
		<path id="path8" class="s0" d="m742 1680.2l679-392.1-259-150.5-266 154c-10.5 7-21 0-21-14v-364c0-10.5 7-21 14-24.5l315-182c10.5-7 21 0 21 14v308l259 150.5v-787.6l-742 430.6z"/>
		<path id="path10" class="s0" d="m808.5 0v301l266 154c10.5 7 10.5 21.1 0 24.6l-315 182c-10.5 7-21 3.5-28 0l-315-182c-10.5-3.5-10.5-21.1 0-24.6l266-154v-301l-682.5 392 742 430.6 742-430.6z"/>
		<path id="path12" class="s0" d="m591.5 1291.6l-266-154-259 150.5 679 392.1v-857.6l-745.5-430.6v784.1-3.5 3.5l259-150.5v-308c0-10.5 14-17.5 21-14l315 182c10.5 7 14 14 14 24.5v364c3.5 14-7 24.5-17.5 17.5z"/>
	</g>
</svg>